<svg width="163" height="163" viewBox="0 0 163 163" fill="none" xmlns="http://www.w3.org/2000/svg">
    <path d="M40.4827 57.4968C38.5388 57.1495 36.812 56.0451 35.6815 54.426C34.5509 52.8069 34.1089 50.8055 34.4524 48.8608C34.5837 48.1413 34.5715 47.4029 34.4167 46.6881C34.2618 45.9732 33.9673 45.296 33.55 44.6953C33.1327 44.0946 32.6009 43.5823 31.9851 43.1876C31.3693 42.793 30.6816 42.5239 29.9614 42.3958C25.9243 41.5706 23.2266 37.689 23.9312 33.7375L25.8069 34.0549C25.2864 36.9971 27.3113 39.8948 30.3233 40.5105C32.2635 40.8615 33.9855 41.9671 35.1121 43.5852C36.2388 45.2032 36.6784 47.2018 36.3345 49.1433C36.2041 49.8626 36.2169 50.6005 36.3722 51.3148C36.5275 52.0291 36.8221 52.7058 37.2393 53.306C37.6565 53.9063 38.1879 54.4184 38.8033 54.8129C39.4187 55.2074 40.1059 55.4767 40.8255 55.6052L40.4827 57.4968ZM58.3386 56.5669C57.3081 55.6074 56.4767 54.4542 55.8921 53.1733C55.3075 51.8923 54.9811 50.5087 54.9316 49.1015C54.8821 47.6943 55.1104 46.2911 55.6035 44.9722C56.0966 43.6533 56.8449 42.4446 57.8054 41.415C60.9793 38.1523 61.0935 32.4204 57.3706 28.9482C53.1431 24.8223 52.9273 18.0112 56.8406 13.79L58.2339 15.085C55.003 18.5603 55.2061 24.1621 58.6878 27.5708C63.1692 31.7507 63.074 38.7363 59.1797 42.7322C57.5931 44.4439 56.7501 46.715 56.8358 49.0474C56.9215 51.3798 57.9288 53.5829 59.6367 55.1736L58.3386 56.5669ZM77.5943 65.9646C75.6851 63.2581 74.9289 59.9042 75.492 56.6404C76.055 53.3765 77.8911 50.4698 80.5967 48.5593C82.8891 46.9364 84.4439 44.4702 84.9199 41.7021C85.3959 38.9341 84.7543 36.0902 83.1358 33.7947L84.6941 32.6997C86.6008 35.4084 87.3551 38.7628 86.7916 42.027C86.2282 45.2912 84.3929 48.1986 81.6885 50.1113C80.5514 50.9133 79.5836 51.9317 78.8404 53.1081C78.0973 54.2845 77.5934 55.5958 77.3575 56.9672C77.1217 58.3385 77.1586 59.7429 77.4661 61.1C77.7735 62.4571 78.3456 63.7402 79.1494 64.876L77.5943 65.9646Z" fill="#5E6175"/>
    <path d="M125.287 80.6438L118.244 127.766C117.888 130.159 116.683 132.344 114.851 133.924C113.018 135.504 110.679 136.373 108.26 136.373H107.755C108.64 136.372 109.513 136.175 110.312 135.795C111.111 135.415 111.816 134.862 112.375 134.175C112.933 133.489 113.333 132.688 113.543 131.828C113.753 130.969 113.77 130.073 113.592 129.207L104.905 87.1533C104.568 85.5388 103.686 84.0895 102.406 83.0491C101.126 82.0087 99.5273 81.4407 97.878 81.4404H47.1825L42.9454 74.458C42.3058 73.4053 41.4061 72.535 40.3327 71.9308C39.2593 71.3265 38.0485 71.0088 36.8167 71.0081H34.4237C34.1741 69.9544 34.1662 68.858 34.4007 67.8009C34.6353 66.7438 35.1061 65.7535 35.7779 64.9043C36.4497 64.0551 37.305 63.369 38.2797 62.8975C39.2545 62.426 40.3233 62.1812 41.4061 62.1816H53.5396C54.7512 62.1822 55.9429 62.4892 57.0039 63.074C58.0649 63.6589 58.9607 64.5027 59.608 65.5269L63.9498 72.4109H118.191C119.222 72.411 120.242 72.6336 121.179 73.0635C122.117 73.4933 122.951 74.1203 123.625 74.9017C124.298 75.683 124.796 76.6005 125.082 77.5914C125.369 78.5823 125.439 79.6234 125.287 80.6438Z" fill="url(#paint0_linear_1380_4002)"/>
    <path style="mix-blend-mode:multiply" d="M125.287 80.644L123.246 94.2915C117.919 93.1688 113.045 90.4903 109.241 86.5951C105.438 82.7 102.876 77.7635 101.88 72.4111H118.181C119.213 72.4099 120.234 72.6315 121.173 73.0607C122.112 73.49 122.947 74.1167 123.621 74.8983C124.296 75.6798 124.794 76.5977 125.081 77.5893C125.369 78.5809 125.439 79.6229 125.287 80.644Z" fill="url(#paint1_linear_1380_4002)"/>
    <path d="M107.754 136.373H32.1664C30.5174 136.373 28.9186 135.805 27.6394 134.765C26.3601 133.724 25.4784 132.274 25.1427 130.66L14.5993 79.6343C14.384 78.5909 14.4036 77.5127 14.6569 76.4779C14.9101 75.4432 15.3906 74.4777 16.0634 73.6518C16.7362 72.8258 17.5845 72.16 18.5467 71.7026C19.5089 71.2453 20.5608 71.008 21.6261 71.0078H36.8161C38.0481 71.0077 39.2593 71.3247 40.3333 71.9284C41.4072 72.532 42.3077 73.402 42.9479 74.4546L47.185 81.437H97.8774C99.5266 81.4372 101.126 82.0053 102.405 83.0457C103.685 84.0861 104.567 85.5354 104.904 87.1499L113.591 129.206C113.769 130.073 113.753 130.968 113.542 131.828C113.332 132.687 112.933 133.489 112.374 134.175C111.815 134.861 111.111 135.414 110.312 135.795C109.513 136.175 108.639 136.372 107.754 136.373Z" fill="#DEE1EC"/>
    <path d="M107.755 137.325H32.1668C30.2985 137.319 28.4889 136.672 27.0406 135.491C25.5923 134.311 24.5931 132.669 24.21 130.841L13.6729 79.8279C13.4288 78.646 13.4509 77.4245 13.7377 76.2522C14.0245 75.0799 14.5688 73.9862 15.331 73.0505C16.0932 72.1148 17.0542 71.3605 18.1442 70.8425C19.2343 70.3245 20.426 70.0557 21.6328 70.0557H36.8164C38.2095 70.0591 39.5785 70.4188 40.7933 71.1004C42.0082 71.782 43.0286 72.7629 43.7576 73.95L47.7185 80.4626H97.865C99.7378 80.4677 101.552 81.1162 103.003 82.2996C104.455 83.483 105.456 85.1293 105.838 86.9626L114.524 129.016C114.732 130.021 114.713 131.06 114.469 132.056C114.225 133.053 113.762 133.983 113.113 134.779C112.465 135.574 111.648 136.216 110.721 136.656C109.794 137.096 108.781 137.325 107.755 137.325ZM21.6328 71.96C20.7099 71.9615 19.7989 72.1685 18.9659 72.5657C18.1329 72.963 17.3987 73.5406 16.8165 74.2568C16.2344 74.9729 15.8189 75.8096 15.6001 76.7062C15.3814 77.6028 15.3649 78.5369 15.5518 79.4407L26.073 130.444C26.3672 131.844 27.1328 133.101 28.2419 134.004C29.3509 134.907 30.7363 135.403 32.1668 135.408H107.755C108.499 135.408 109.234 135.242 109.907 134.922C110.579 134.603 111.171 134.137 111.641 133.559C112.111 132.982 112.446 132.307 112.622 131.583C112.798 130.86 112.81 130.106 112.658 129.378L103.971 87.3245C103.678 85.9235 102.912 84.6658 101.802 83.7617C100.692 82.8576 99.306 82.3619 97.8745 82.3574H46.6553L42.1421 74.9275C41.5808 74.0201 40.7969 73.2712 39.8648 72.7518C38.9327 72.2325 37.8834 71.9599 36.8164 71.96H21.6328Z" fill="#5E6175"/>
    <path d="M108.259 137.325H107.754V135.421C108.499 135.421 109.234 135.255 109.906 134.935C110.578 134.616 111.171 134.15 111.641 133.572C112.11 132.995 112.445 132.32 112.621 131.596C112.797 130.873 112.81 130.119 112.658 129.391L103.971 87.3374C103.677 85.9365 102.912 84.6788 101.802 83.7747C100.692 82.8706 99.3056 82.3748 97.8741 82.3704H46.6549L42.1417 74.9405C41.5819 74.0307 40.7987 73.2793 39.8665 72.7577C38.9343 72.236 37.8842 71.9615 36.816 71.9602H33.6676L33.4962 71.2271C33.2142 70.0337 33.2058 68.792 33.4718 67.5949C33.7377 66.3978 34.2711 65.2764 35.0319 64.3147C35.7927 63.353 36.7613 62.5759 37.865 62.0416C38.9688 61.5073 40.1791 61.2297 41.4054 61.2295H53.5389C54.9119 61.2251 56.2634 61.5708 57.4657 62.2338C58.668 62.8969 59.6814 63.8555 60.4103 65.0191L64.4759 71.4588H118.19C119.358 71.4592 120.513 71.7116 121.575 72.1988C122.637 72.6859 123.582 73.3964 124.345 74.2817C125.108 75.167 125.67 76.2064 125.995 77.329C126.32 78.4515 126.398 79.6309 126.226 80.7867C126.226 80.8184 126.385 79.7393 119.186 127.908C118.784 130.522 117.462 132.906 115.459 134.632C113.456 136.358 110.903 137.313 108.259 137.325ZM47.7181 80.4756H97.8646C99.7356 80.48 101.548 81.1267 103 82.3076C104.451 83.4885 105.453 85.1319 105.837 86.9629L114.524 129.016C114.827 130.485 114.645 132.012 114.004 133.367C115.782 131.933 116.958 129.885 117.301 127.626L124.344 80.5042C124.476 79.6193 124.415 78.7163 124.167 77.8568C123.918 76.9974 123.487 76.2017 122.903 75.5239C122.319 74.8462 121.595 74.3023 120.782 73.9294C119.969 73.5565 119.085 73.3633 118.19 73.3631H63.4222L58.798 66.0347C58.2392 65.1443 57.4629 64.4107 56.5423 63.9032C55.6217 63.3957 54.587 63.1309 53.5358 63.1338H41.4022C40.5269 63.1354 39.6618 63.3217 38.8634 63.6803C38.065 64.039 37.3512 64.562 36.7686 65.2153C36.1861 65.8685 35.7478 66.6373 35.4826 67.4714C35.2173 68.3055 35.1309 69.1862 35.2291 70.0559H36.816C38.2091 70.0594 39.578 70.419 40.7929 71.1006C42.0078 71.7822 43.0282 72.7632 43.7572 73.9502L47.7181 80.4756Z" fill="#5E6175"/>
    <path d="M54.1038 93.5642L43.6748 103.993L47.2072 107.526L57.6362 97.0966L54.1038 93.5642Z" fill="#5E6175"/>
    <path d="M47.2072 93.5618L43.6748 97.0942L54.1038 107.523L57.6362 103.991L47.2072 93.5618Z" fill="#5E6175"/>
    <path d="M78.3801 93.5618L67.9512 103.991L71.4836 107.523L81.9126 97.0942L78.3801 93.5618Z" fill="#5E6175"/>
    <path d="M71.4836 93.5599L67.9512 97.0923L78.3801 107.521L81.9126 103.989L71.4836 93.5599Z" fill="#5E6175"/>
    <path d="M80.333 119.742C80.0569 119.494 73.4299 113.645 63.0896 113.645C52.7493 113.645 46.1191 119.494 45.843 119.742L45.0273 120.475L48.5789 124.433L49.3945 123.719C53.298 120.647 58.1209 118.977 63.088 118.977C68.0551 118.977 72.878 120.647 76.7815 123.719L77.5972 124.442L81.1487 120.475L80.333 119.742Z" fill="#5E6175"/>
    <path d="M128.87 89.6387C141.133 89.6387 151.074 79.6976 151.074 67.4346C151.074 55.1716 141.133 45.2305 128.87 45.2305C116.607 45.2305 106.666 55.1716 106.666 67.4346C106.666 79.6976 116.607 89.6387 128.87 89.6387Z" fill="#F5F5F5"/>
    <path d="M128.857 90.5906C124.275 90.5906 119.796 89.2317 115.985 86.6859C112.175 84.1401 109.206 80.5216 107.452 76.288C105.699 72.0544 105.24 67.3959 106.134 62.9016C107.028 58.4072 109.234 54.2789 112.475 51.0387C115.715 47.7985 119.843 45.5918 124.337 44.6979C128.832 43.8039 133.49 44.2627 137.724 46.0163C141.957 47.7699 145.576 50.7395 148.122 54.5496C150.668 58.3597 152.026 62.8392 152.026 67.4216C152.026 73.5664 149.585 79.4595 145.24 83.8045C140.895 88.1496 135.002 90.5906 128.857 90.5906ZM128.857 46.1855C124.651 46.1855 120.539 47.4331 117.042 49.7704C113.544 52.1077 110.819 55.4297 109.21 59.3162C107.601 63.2027 107.181 67.4792 108.003 71.6045C108.824 75.7299 110.851 79.5189 113.827 82.4922C116.802 85.4654 120.593 87.4895 124.719 88.3082C128.845 89.1269 133.121 88.7035 137.006 87.0916C140.891 85.4797 144.211 82.7517 146.546 79.2526C148.881 75.7536 150.125 71.6407 150.122 67.4343C150.118 61.7973 147.876 56.3927 143.888 52.4082C139.901 48.4237 134.494 46.1855 128.857 46.1855ZM100.502 47.3059C99.8986 47.3059 99.3083 47.1268 98.8062 46.7913C98.3041 46.4558 97.9127 45.979 97.6816 45.4211C97.4505 44.8632 97.3901 44.2493 97.5079 43.657C97.6257 43.0647 97.9165 42.5207 98.3435 42.0937C98.7705 41.6667 99.3145 41.3759 99.9068 41.2581C100.499 41.1403 101.113 41.2008 101.671 41.4319C102.229 41.663 102.706 42.0543 103.041 42.5564C103.377 43.0585 103.556 43.6488 103.556 44.2527C103.556 45.0624 103.234 45.839 102.661 46.4116C102.089 46.9842 101.312 47.3059 100.502 47.3059ZM100.502 43.1069C100.275 43.1069 100.053 43.1744 99.8638 43.3008C99.6748 43.4272 99.5275 43.6068 99.4407 43.8169C99.3538 44.027 99.3312 44.2582 99.3758 44.4812C99.4204 44.7041 99.5302 44.9088 99.6912 45.0694C99.8522 45.2299 100.057 45.3391 100.28 45.3831C100.503 45.427 100.734 45.4038 100.944 45.3164C101.154 45.229 101.333 45.0812 101.459 44.8918C101.585 44.7025 101.652 44.48 101.651 44.2527C101.651 44.1019 101.622 43.9527 101.564 43.8135C101.506 43.6743 101.421 43.5478 101.315 43.4414C101.208 43.3349 101.081 43.2506 100.942 43.1932C100.802 43.1358 100.653 43.1065 100.502 43.1069ZM114.813 39.8315C113.985 39.829 113.175 39.581 112.487 39.1188C111.8 38.6566 111.264 38.0009 110.949 37.2346C110.633 36.4683 110.552 35.6257 110.715 34.8132C110.879 34.0008 111.279 33.2549 111.866 32.6698C112.453 32.0847 113.2 31.6867 114.013 31.5259C114.826 31.3652 115.668 31.4489 116.433 31.7666C117.199 32.0843 117.853 32.6217 118.313 33.3109C118.773 34.0001 119.019 34.8102 119.019 35.6389C119.018 36.1904 118.909 36.7365 118.697 37.2458C118.486 37.7551 118.176 38.2177 117.785 38.6071C117.395 38.9965 116.931 39.3051 116.421 39.5152C115.911 39.7253 115.365 39.8328 114.813 39.8315ZM114.813 33.3537C114.361 33.3537 113.918 33.488 113.542 33.7396C113.165 33.9912 112.872 34.3488 112.699 34.7671C112.526 35.1854 112.481 35.6457 112.569 36.0897C112.658 36.5337 112.876 36.9414 113.196 37.2613C113.517 37.5812 113.925 37.7989 114.369 37.8868C114.813 37.9748 115.273 37.929 115.691 37.7553C116.109 37.5816 116.466 37.2878 116.717 36.9111C116.969 36.5344 117.102 36.0916 117.102 35.6389C117.101 35.0325 116.859 34.4513 116.43 34.0229C116.001 33.5944 115.42 33.3537 114.813 33.3537Z" fill="#5E6175"/>
    <path d="M20.3218 137.984L15.959 142.347L17.3055 143.694L21.6683 139.331L20.3218 137.984Z" fill="#5E6175"/>
    <path d="M27.0342 141.892H25.1299V148.062H27.0342V141.892Z" fill="#5E6175"/>
    <path d="M17.5957 132.993H11.4258V134.897H17.5957V132.993Z" fill="#5E6175"/>
    <path d="M131.324 72.7279H126.421C126.421 71.0707 126.815 69.4373 127.57 67.9619C128.325 66.4865 129.419 65.2113 130.762 64.2411C131.216 63.9154 131.578 63.4787 131.815 62.9728C132.051 62.4669 132.153 61.9088 132.112 61.3519C132.071 60.7951 131.887 60.2582 131.578 59.7928C131.27 59.3273 130.847 58.9489 130.35 58.6939C129.854 58.4388 129.3 58.3156 128.742 58.3361C128.184 58.3566 127.64 58.5201 127.164 58.8109C126.687 59.1017 126.293 59.5101 126.02 59.9969C125.746 60.4837 125.602 61.0326 125.602 61.5909H120.711C120.715 60.194 121.077 58.8214 121.763 57.6045C122.449 56.3876 123.436 55.3673 124.629 54.6411C125.823 53.915 127.183 53.5074 128.579 53.4574C129.975 53.4074 131.36 53.7166 132.603 54.3554C133.845 54.9943 134.902 55.9414 135.674 57.106C136.445 58.2707 136.905 59.6138 137.008 61.0069C137.112 62.4 136.856 63.7964 136.265 65.0624C135.675 66.3283 134.769 67.4214 133.635 68.2369C132.922 68.75 132.342 69.4244 131.94 70.205C131.539 70.9855 131.328 71.8501 131.324 72.7279Z" fill="#5E6175"/>
    <path d="M131.289 76.5181H126.366V81.4407H131.289V76.5181Z" fill="#5E6175"/>
    <path d="M107.958 122.58H106.054V120.675H107.958V122.58ZM102.88 122.58H100.976V120.675H102.88V122.58ZM97.8018 122.58H95.8975V120.675H97.8018V122.58ZM92.7236 122.58H90.8193V120.675H92.7236V122.58Z" fill="#A9AFC4"/>
    <path d="M116.46 120.675H114.556V122.58H116.46V120.675Z" fill="#A9AFC4"/>
    <path d="M129.013 122.579H127.108V120.675H129.013V122.579ZM123.935 122.579H122.03V120.675H123.935V122.579ZM134.002 122.576H132.098V120.672H134.002V122.576ZM134.002 117.498H132.098V115.594H134.002V117.498ZM134.002 112.42H132.098V110.516H134.002V112.42ZM134.002 107.342H132.098V105.438H134.002V107.342ZM134.002 102.264H132.098V100.359H134.002V102.264ZM134.002 97.1855H132.098V95.2812H134.002V97.1855Z" fill="#A9AFC4"/>
    <defs>
        <linearGradient id="paint0_linear_1380_4002" x1="34.2237" y1="99.2773" x2="125.367" y2="99.2773" gradientUnits="userSpaceOnUse">
            <stop stop-color="#A9AFC4"/>
            <stop offset="1" stop-color="#D4D8E5"/>
        </linearGradient>
        <linearGradient id="paint1_linear_1380_4002" x1="101.889" y1="83.3481" x2="125.366" y2="83.3481" gradientUnits="userSpaceOnUse">
            <stop stop-color="#CACFDD"/>
            <stop offset="1" stop-color="#EEF0F1"/>
        </linearGradient>
    </defs>
</svg>
